<?xml version="1.0" encoding="utf-8"?>
<svg xmlns="http://www.w3.org/2000/svg" width="2500" height="2500" viewBox="0 0 192.756 192.756" xmlns:bx="https://boxy-svg.com"><defs><bx:export><bx:file format="svg"/></bx:export></defs><g fill-rule="evenodd" clip-rule="evenodd"><path d="M 53.302 148.793 L 53.302 151.958 L 52.247 151.958 L 52.247 148.793 L 50.77 148.793 L 50.77 148.02 L 54.779 148.02 L 54.779 148.793 L 53.302 148.793 L 53.302 148.793 Z M 55.271 151.958 L 55.271 148.02 L 56.326 148.02 L 56.326 149.498 L 58.436 149.498 L 58.436 148.02 L 59.561 148.02 L 59.561 151.958 L 58.436 151.958 L 58.436 150.341 L 56.326 150.341 L 56.326 151.958 L 55.271 151.958 Z M 60.546 151.958 L 60.546 148.02 L 64.415 148.02 L 64.415 148.793 L 61.602 148.793 L 61.602 149.497 L 64.063 149.497 L 64.063 150.27 L 61.602 150.27 L 61.602 151.114 L 64.415 151.114 L 64.415 151.958 L 60.546 151.958 L 60.546 151.958 Z M 68.422 149.707 L 69.618 149.707 C 69.97 149.707 70.181 149.637 70.322 149.567 C 70.463 149.497 70.533 149.355 70.533 149.214 C 70.533 149.073 70.463 148.933 70.322 148.862 C 70.181 148.791 69.97 148.792 69.548 148.792 L 68.423 148.792 L 68.423 149.707 L 68.422 149.707 L 68.422 149.707 Z M 67.298 151.958 L 67.298 148.02 L 69.97 148.02 C 70.533 148.02 70.955 148.09 71.236 148.231 C 71.517 148.442 71.658 148.723 71.658 149.075 C 71.658 149.286 71.588 149.498 71.447 149.708 C 71.377 149.849 71.166 149.989 70.955 150.06 C 71.166 150.131 71.307 150.202 71.377 150.342 C 71.447 150.482 71.447 150.623 71.518 150.904 L 71.518 151.045 C 71.518 151.537 71.589 151.818 71.729 151.959 L 70.533 151.959 C 70.463 151.959 70.463 151.889 70.463 151.818 C 70.393 151.748 70.393 151.748 70.393 151.677 L 70.393 151.396 C 70.393 151.044 70.393 150.763 70.252 150.693 C 70.182 150.552 69.97 150.482 69.619 150.482 L 68.423 150.482 L 68.423 151.959 L 67.298 151.959 L 67.298 151.958 L 67.298 151.958 Z M 72.431 151.958 L 72.431 148.02 L 76.299 148.02 L 76.299 148.793 L 73.557 148.793 L 73.557 149.497 L 76.018 149.497 L 76.018 150.27 L 73.557 150.27 L 73.557 151.114 L 76.299 151.114 L 76.299 151.958 L 72.431 151.958 Z M 78.269 150.341 L 79.465 150.341 L 78.832 149.074 L 78.269 150.341 Z M 76.37 151.958 L 78.409 148.02 L 79.464 148.02 L 81.433 151.958 L 80.238 151.958 L 79.816 151.114 L 77.918 151.114 L 77.496 151.958 L 76.37 151.958 L 76.37 151.958 Z M 81.714 151.958 L 81.714 148.02 L 82.839 148.02 L 82.839 151.115 L 85.02 151.115 L 85.02 151.959 L 81.714 151.959 L 81.714 151.958 Z M 89.099 148.793 L 89.099 151.114 L 89.943 151.114 C 90.436 151.114 90.787 151.044 91.068 150.833 C 91.279 150.622 91.42 150.341 91.42 149.988 C 91.42 149.567 91.279 149.285 91.068 149.074 C 90.786 148.863 90.435 148.793 89.943 148.793 L 89.099 148.793 Z M 89.873 148.02 C 90.365 148.02 90.717 148.02 90.928 148.09 C 91.21 148.09 91.42 148.16 91.561 148.231 C 91.913 148.442 92.123 148.653 92.335 148.934 C 92.476 149.215 92.616 149.568 92.616 149.989 C 92.616 150.412 92.475 150.693 92.335 151.045 C 92.124 151.326 91.913 151.537 91.561 151.678 C 91.42 151.819 91.21 151.889 90.928 151.889 C 90.717 151.959 90.365 151.959 89.873 151.959 L 87.904 151.959 L 87.904 148.021 L 89.873 148.021 L 89.873 148.02 L 89.873 148.02 Z M 94.444 149.707 L 95.64 149.707 C 95.991 149.707 96.202 149.637 96.343 149.567 C 96.413 149.497 96.484 149.355 96.484 149.214 C 96.484 149.073 96.414 148.933 96.343 148.862 C 96.202 148.792 95.991 148.792 95.57 148.792 L 94.445 148.792 L 94.445 149.707 L 94.444 149.707 Z M 93.319 151.958 L 93.319 148.02 L 95.991 148.02 C 96.484 148.02 96.906 148.09 97.186 148.231 C 97.46 148.424 97.619 148.741 97.61 149.075 C 97.61 149.286 97.54 149.498 97.397 149.708 C 97.327 149.849 97.116 149.989 96.906 150.06 C 97.115 150.131 97.256 150.202 97.326 150.342 C 97.396 150.482 97.396 150.623 97.469 150.904 L 97.469 151.045 C 97.469 151.537 97.539 151.818 97.68 151.959 L 96.484 151.959 C 96.414 151.959 96.414 151.889 96.414 151.818 C 96.344 151.748 96.344 151.748 96.344 151.677 L 96.344 151.396 C 96.344 151.044 96.344 150.763 96.274 150.693 C 96.204 150.552 95.992 150.482 95.641 150.482 L 94.445 150.482 L 94.445 151.959 L 93.319 151.959 L 93.319 151.958 L 93.319 151.958 Z M 98.453 151.958 L 98.453 148.02 L 99.508 148.02 L 99.508 151.958 L 98.453 151.958 Z M 101.688 151.958 L 99.79 148.02 L 100.985 148.02 L 102.251 150.833 L 103.517 148.02 L 104.712 148.02 L 102.814 151.958 L 101.688 151.958 Z M 104.922 151.958 L 104.922 148.02 L 106.047 148.02 L 106.047 151.958 L 104.922 151.958 Z M 107.033 151.958 L 107.033 148.02 L 108.369 148.02 L 110.549 150.833 L 110.549 148.02 L 111.604 148.02 L 111.604 151.958 L 110.268 151.958 L 108.088 149.145 L 108.088 151.958 L 107.033 151.958 Z M 116.527 151.536 C 116.316 151.677 116.035 151.817 115.824 151.958 C 115.543 152.028 115.26 152.099 114.908 152.099 C 114.558 152.099 114.275 152.029 113.924 151.958 C 113.649 151.884 113.387 151.765 113.151 151.606 C 112.87 151.395 112.659 151.184 112.518 150.903 C 112.448 150.622 112.377 150.341 112.377 149.988 C 112.377 149.355 112.588 148.863 113.08 148.441 C 113.502 148.089 114.135 147.879 114.978 147.879 C 115.613 147.879 116.175 148.02 116.667 148.301 C 117.089 148.582 117.37 148.934 117.44 149.356 L 116.245 149.356 C 116.118 149.159 115.95 148.991 115.753 148.864 C 115.504 148.777 115.242 148.73 114.978 148.723 C 114.558 148.723 114.205 148.793 113.923 149.075 C 113.642 149.286 113.571 149.568 113.571 149.989 C 113.571 150.412 113.641 150.693 113.923 150.904 C 114.205 151.115 114.558 151.256 114.978 151.256 C 115.259 151.256 115.542 151.186 115.753 151.115 C 115.964 150.974 116.105 150.834 116.245 150.623 L 115.259 150.623 L 115.259 149.778 L 117.37 149.778 L 117.37 151.959 L 116.597 151.959 L 116.527 151.536 L 116.527 151.536 Z M 120.395 150.622 L 121.52 150.622 C 121.52 150.833 121.59 151.044 121.801 151.114 C 122.012 151.255 122.363 151.325 122.785 151.325 C 123.066 151.325 123.347 151.255 123.488 151.184 C 123.629 151.113 123.769 150.973 123.769 150.832 C 123.769 150.691 123.699 150.621 123.558 150.551 C 123.488 150.481 123.206 150.41 122.925 150.41 L 122.152 150.34 C 121.59 150.27 121.168 150.129 120.886 149.987 C 120.605 149.776 120.464 149.566 120.464 149.214 C 120.464 148.792 120.675 148.511 121.026 148.23 C 121.506 147.991 122.037 147.87 122.573 147.878 C 123.276 147.878 123.768 148.019 124.192 148.23 C 124.544 148.441 124.754 148.792 124.754 149.214 L 123.627 149.214 C 123.627 149.003 123.557 148.862 123.346 148.792 C 123.205 148.651 122.924 148.651 122.573 148.651 C 122.292 148.651 122.081 148.651 121.87 148.721 C 121.729 148.791 121.659 148.932 121.659 149.073 C 121.659 149.214 121.659 149.284 121.8 149.354 C 121.87 149.425 122.152 149.425 122.503 149.496 L 123.347 149.566 C 123.909 149.635 124.263 149.706 124.544 149.917 C 124.825 150.129 124.966 150.41 124.966 150.691 C 124.966 151.183 124.755 151.464 124.333 151.746 C 123.979 151.957 123.347 152.098 122.644 152.098 C 121.871 152.098 121.378 151.957 120.956 151.676 C 120.534 151.465 120.394 151.114 120.394 150.692 L 120.394 150.622 L 120.395 150.622 L 120.395 150.622 Z M 125.74 151.958 L 125.74 148.02 L 126.865 148.02 L 126.865 151.958 L 125.74 151.958 Z M 127.85 151.958 L 127.85 148.02 L 129.256 148.02 L 130.662 150.833 L 132.068 148.02 L 133.476 148.02 L 133.476 151.958 L 132.419 151.958 L 132.419 149.285 L 131.083 151.958 L 130.169 151.958 L 128.903 149.285 L 128.903 151.958 L 127.85 151.958 L 127.85 151.958 Z M 135.586 148.02 L 135.586 150.13 C 135.586 150.552 135.656 150.833 135.797 150.974 C 136.008 151.185 136.289 151.255 136.711 151.255 C 136.922 151.255 137.063 151.255 137.273 151.185 C 137.414 151.115 137.554 151.044 137.625 150.904 C 137.695 150.834 137.766 150.763 137.766 150.623 C 137.836 150.553 137.836 150.342 137.836 150.131 L 137.836 148.021 L 138.891 148.021 L 138.891 150.272 C 138.891 150.834 138.75 151.327 138.329 151.608 C 137.977 151.889 137.415 152.1 136.712 152.1 C 135.939 152.1 135.446 151.889 135.024 151.608 C 134.672 151.327 134.462 150.835 134.462 150.272 L 134.462 148.021 L 135.586 148.021 L 135.586 148.02 Z M 139.875 151.958 L 139.875 148.02 L 141 148.02 L 141 151.115 L 143.252 151.115 L 143.252 151.959 L 139.875 151.959 L 139.875 151.958 L 139.875 151.958 Z M 145.502 150.341 L 146.627 150.341 L 146.065 149.074 L 145.502 150.341 Z M 143.533 151.958 L 145.642 148.02 L 146.626 148.02 L 148.665 151.958 L 147.4 151.958 L 147.048 151.114 L 145.079 151.114 L 144.727 151.958 L 143.533 151.958 L 143.533 151.958 Z M 150.635 148.793 L 152.112 148.793 L 152.112 148.02 L 148.104 148.02 L 148.104 148.793 L 149.581 148.793 L 149.581 151.958 L 150.636 151.958 L 150.636 148.793 L 150.635 148.793 Z M 154.996 151.255 C 155.418 151.255 155.769 151.114 155.98 150.903 C 156.261 150.692 156.402 150.411 156.402 149.988 C 156.402 149.567 156.261 149.285 155.98 149.074 C 155.769 148.793 155.418 148.722 154.996 148.722 C 154.504 148.722 154.223 148.792 153.941 149.074 C 153.66 149.285 153.589 149.567 153.589 149.988 C 153.589 150.411 153.659 150.692 153.941 150.903 C 154.223 151.114 154.504 151.255 154.996 151.255 Z M 152.395 149.988 C 152.395 149.355 152.606 148.863 153.098 148.441 C 153.52 148.089 154.153 147.879 154.996 147.879 C 155.769 147.879 156.402 148.09 156.894 148.441 C 157.316 148.863 157.597 149.355 157.597 149.988 C 157.597 150.622 157.316 151.114 156.894 151.536 C 156.402 151.888 155.769 152.098 154.996 152.098 C 154.152 152.098 153.519 151.887 153.098 151.536 C 152.605 151.114 152.395 150.622 152.395 149.988 Z M 159.426 149.707 L 160.621 149.707 C 160.973 149.707 161.183 149.637 161.324 149.567 C 161.467 149.497 161.537 149.355 161.537 149.214 C 161.537 149.073 161.467 148.933 161.324 148.862 C 161.254 148.792 160.972 148.792 160.621 148.792 L 159.426 148.792 L 159.426 149.707 Z M 158.301 151.958 L 158.301 148.02 L 160.973 148.02 C 161.608 148.02 162.03 148.09 162.311 148.231 C 162.592 148.442 162.733 148.723 162.733 149.075 C 162.733 149.286 162.663 149.498 162.522 149.708 C 162.362 149.865 162.171 149.985 161.96 150.06 C 162.171 150.131 162.312 150.202 162.382 150.342 C 162.452 150.482 162.523 150.623 162.523 150.904 L 162.523 151.045 C 162.523 151.537 162.593 151.818 162.734 151.959 L 161.539 151.959 C 161.469 151.959 161.469 151.889 161.469 151.818 L 161.469 151.396 C 161.469 151.044 161.399 150.763 161.256 150.693 C 161.186 150.552 160.975 150.482 160.694 150.482 L 159.429 150.482 L 159.429 151.959 L 158.301 151.959 L 158.301 151.958 L 158.301 151.958 Z M 56.256 144.785 L 56.537 143.729 C 56.116 144.151 55.623 144.432 55.06 144.644 C 54.568 144.855 54.076 144.996 53.513 144.996 C 52.529 144.996 51.896 144.644 51.615 143.94 C 51.334 143.167 51.404 142.182 51.896 140.776 L 53.584 135.219 C 54.077 133.813 54.709 132.758 55.694 132.055 C 56.608 131.352 57.803 130.999 59.21 130.999 C 60.687 130.999 61.671 131.352 62.164 132.055 C 62.657 132.758 62.656 133.813 62.234 135.219 L 62.023 135.853 L 58.718 135.853 L 59.07 134.728 C 59.211 134.235 59.211 133.954 59.14 133.743 C 59.069 133.532 58.789 133.462 58.437 133.462 C 58.085 133.462 57.804 133.532 57.593 133.743 C 57.383 133.954 57.241 134.235 57.101 134.728 L 54.991 141.267 C 54.85 141.69 54.85 142.041 54.991 142.252 C 55.061 142.463 55.272 142.533 55.624 142.533 C 55.976 142.533 56.257 142.463 56.468 142.252 C 56.679 142.041 56.89 141.69 57.03 141.267 L 57.522 139.72 L 56.397 139.72 L 57.17 137.259 L 61.601 137.259 L 59.21 144.784 L 56.256 144.784 L 56.256 144.785 L 56.256 144.785 Z M 67.016 136.696 C 67.72 136.627 68.282 136.556 68.563 136.345 C 68.9 136.168 69.153 135.864 69.267 135.5 L 69.478 134.728 C 69.618 134.235 69.618 133.954 69.408 133.743 C 69.197 133.602 68.775 133.532 68.142 133.532 L 68.001 133.532 L 67.016 136.696 L 67.016 136.696 Z M 61.25 144.785 L 64.485 144.785 L 66.313 138.806 C 67.086 138.806 67.509 138.947 67.72 139.158 C 67.86 139.369 67.86 139.861 67.65 140.565 L 66.806 143.237 C 66.665 143.659 66.595 143.94 66.525 144.221 C 66.525 144.432 66.525 144.644 66.595 144.784 L 69.9 144.784 C 69.83 144.573 69.83 144.431 69.83 144.221 C 69.83 144.011 69.9 143.659 70.041 143.307 L 71.025 140.212 C 71.236 139.439 71.236 138.876 71.095 138.524 C 70.954 138.102 70.603 137.821 70.04 137.61 C 70.743 137.399 71.235 137.048 71.658 136.695 C 72.08 136.274 72.361 135.712 72.642 135.007 L 72.853 134.234 L 72.923 134.093 C 73.205 133.109 73.134 132.405 72.641 131.913 C 72.22 131.421 71.375 131.21 70.18 131.21 L 65.468 131.21 L 61.25 144.785 L 61.25 144.785 Z M 71.236 144.785 L 78.128 131.212 L 82.559 131.212 L 80.942 144.785 L 77.496 144.785 L 77.918 142.323 L 75.667 142.323 L 74.542 144.785 L 71.236 144.785 L 71.236 144.785 Z M 76.792 139.861 L 78.339 139.861 L 79.183 135.713 C 79.183 135.431 79.253 135.15 79.324 134.869 C 79.394 134.516 79.535 134.024 79.676 133.391 C 79.465 133.743 79.324 134.164 79.184 134.516 C 78.973 134.938 78.832 135.36 78.622 135.783 L 76.792 139.861 Z M 81.925 144.785 L 85.161 144.785 L 86.497 140.354 C 86.778 139.58 86.989 138.736 87.2 137.892 C 87.481 136.978 87.693 135.994 87.904 135.008 C 87.834 135.712 87.763 136.415 87.693 137.048 L 87.693 138.946 L 87.763 144.784 L 91.279 144.784 L 95.499 131.211 L 92.334 131.211 L 90.786 136.204 C 90.505 137.118 90.294 137.892 90.083 138.595 C 89.942 139.298 89.802 139.931 89.661 140.635 C 89.732 139.931 89.802 139.228 89.802 138.595 C 89.802 137.962 89.872 137.329 89.802 136.696 L 89.872 131.212 L 86.215 131.212 L 81.925 144.785 L 81.925 144.785 Z M 99.648 144.785 L 103.023 133.813 L 100.914 133.813 L 101.758 131.211 L 109.283 131.211 L 108.439 133.813 L 106.328 133.813 L 102.883 144.785 L 99.648 144.785 L 99.648 144.785 Z M 113.924 131.212 L 110.619 131.212 L 107.666 140.776 C 107.174 142.182 107.244 143.237 107.736 143.94 C 108.228 144.644 109.142 144.996 110.548 144.996 C 112.025 144.996 113.15 144.644 114.134 143.94 C 115.05 143.237 115.753 142.182 116.175 140.776 L 119.128 131.212 L 115.894 131.212 L 112.728 141.268 C 112.587 141.691 112.376 142.042 112.166 142.253 C 111.956 142.464 111.674 142.534 111.322 142.534 C 110.97 142.534 110.76 142.464 110.689 142.253 C 110.618 142.042 110.619 141.691 110.759 141.268 L 113.924 131.212 L 113.924 131.212 Z M 122.645 136.696 C 123.418 136.627 123.911 136.556 124.264 136.345 C 124.545 136.204 124.756 135.923 124.897 135.5 L 125.178 134.728 C 125.319 134.235 125.248 133.954 125.108 133.743 C 124.897 133.602 124.475 133.532 123.77 133.532 L 123.629 133.532 L 122.645 136.696 L 122.645 136.696 Z M 116.879 144.785 L 121.168 131.212 L 125.811 131.212 C 127.006 131.212 127.85 131.423 128.342 131.915 C 128.764 132.406 128.904 133.11 128.553 134.095 L 128.553 134.236 L 128.272 135.009 C 128.061 135.713 127.78 136.276 127.358 136.697 C 126.863 137.114 126.289 137.425 125.67 137.612 C 126.232 137.823 126.654 138.104 126.795 138.526 C 126.936 138.878 126.865 139.44 126.654 140.214 L 125.67 143.309 C 125.6 143.661 125.529 144.012 125.459 144.223 C 125.459 144.434 125.459 144.576 125.529 144.786 L 122.222 144.786 L 122.222 144.223 C 122.292 143.942 122.363 143.661 122.503 143.239 L 123.276 140.567 C 123.557 139.863 123.557 139.371 123.417 139.16 C 123.206 138.949 122.714 138.808 122.011 138.808 L 120.113 144.787 L 116.879 144.787 L 116.879 144.785 L 116.879 144.785 Z M 127.357 144.785 L 130.662 144.785 L 134.883 131.212 L 131.647 131.212 L 127.357 144.785 Z M 133.756 140.072 L 136.992 140.072 L 136.64 141.197 C 136.499 141.62 136.429 141.971 136.57 142.182 C 136.64 142.393 136.922 142.534 137.273 142.534 C 137.554 142.534 137.906 142.464 138.117 142.253 C 138.398 142.042 138.609 141.761 138.679 141.408 C 138.749 141.128 138.749 140.846 138.679 140.565 C 138.609 140.284 138.398 140.002 138.117 139.72 C 137.976 139.579 137.765 139.439 137.555 139.228 C 136.711 138.455 136.149 137.822 135.867 137.47 C 135.585 137.118 135.445 136.696 135.445 136.204 C 135.375 135.712 135.445 135.219 135.586 134.586 C 135.938 133.461 136.641 132.617 137.555 131.984 C 138.539 131.351 139.664 130.999 141 130.999 C 142.338 130.999 143.252 131.281 143.744 131.914 C 144.236 132.476 144.306 133.32 143.955 134.445 L 143.603 135.57 L 140.507 135.57 L 140.788 134.657 C 140.929 134.234 140.929 133.883 140.858 133.672 C 140.717 133.461 140.506 133.391 140.155 133.391 C 139.874 133.391 139.593 133.461 139.382 133.672 C 139.143 133.843 138.969 134.092 138.89 134.375 C 138.749 134.868 139.171 135.712 140.296 136.837 L 140.366 136.907 L 140.507 137.048 C 141.491 138.032 142.056 138.736 142.126 139.157 C 142.196 139.509 142.267 139.79 142.196 140.141 C 142.196 140.494 142.126 140.844 141.985 141.266 C 141.631 142.392 140.999 143.306 140.014 143.939 C 139.03 144.643 137.834 144.924 136.428 144.924 C 135.022 144.924 134.108 144.643 133.616 143.939 C 133.052 143.306 132.981 142.322 133.405 141.056 L 133.756 140.072 L 133.756 140.072 Z M 142.127 144.785 L 145.291 144.785 L 146.838 139.721 C 147.26 138.526 147.541 137.401 147.893 136.346 C 148.174 135.29 148.526 134.236 148.807 133.181 C 148.666 133.884 148.526 134.659 148.385 135.431 C 148.315 136.135 148.174 137.049 148.033 137.963 L 147.189 144.785 L 149.228 144.785 L 152.675 137.681 C 152.816 137.47 153.027 136.978 153.448 136.134 C 153.8 135.36 154.292 134.375 154.854 133.18 C 154.432 134.375 154.081 135.5 153.729 136.626 L 152.674 139.79 L 151.127 144.784 L 154.291 144.784 L 158.51 131.211 L 153.518 131.211 L 151.407 135.642 C 151.198 135.923 151.057 136.415 150.774 137.048 C 150.493 137.61 150.212 138.314 149.93 139.157 C 150.141 138.454 150.282 137.821 150.422 137.188 C 150.492 136.626 150.633 136.063 150.703 135.5 L 151.406 131.211 L 146.344 131.211 L 142.127 144.785 L 142.127 144.785 Z M 162.662 134.729 L 160.551 141.268 C 160.41 141.691 160.41 142.042 160.551 142.253 C 160.621 142.464 160.834 142.534 161.184 142.534 C 161.538 142.534 161.819 142.464 162.03 142.253 C 162.241 142.042 162.452 141.691 162.592 141.268 L 164.631 134.729 C 164.772 134.236 164.772 133.955 164.701 133.744 C 164.63 133.533 164.349 133.463 163.998 133.463 C 163.647 133.463 163.365 133.533 163.154 133.744 C 162.943 133.955 162.803 134.235 162.662 134.729 L 162.662 134.729 Z M 159.145 135.22 C 159.637 133.814 160.27 132.759 161.254 132.056 C 162.17 131.353 163.365 131 164.772 131 C 166.249 131 167.233 131.353 167.725 132.056 C 168.217 132.759 168.217 133.814 167.795 135.22 L 166.037 140.777 C 165.615 142.183 164.912 143.238 163.998 143.941 C 163.084 144.645 161.889 144.997 160.41 144.997 C 159.004 144.997 158.019 144.645 157.527 143.941 C 157.035 143.238 156.965 142.183 157.457 140.777 L 159.145 135.22 Z M 172.227 132.759 L 172.227 133.673 L 172.579 133.673 C 172.79 133.673 173.001 133.603 173.071 133.532 C 173.212 133.462 173.212 133.391 173.212 133.251 C 173.212 133.111 173.212 132.97 173.071 132.899 C 172.93 132.828 172.79 132.758 172.579 132.758 L 172.227 132.758 L 172.227 132.759 L 172.227 132.759 Z M 171.453 132.266 L 172.719 132.266 C 173.141 132.266 173.422 132.407 173.703 132.548 C 173.914 132.689 173.984 132.9 173.984 133.181 C 173.984 133.392 173.984 133.603 173.843 133.743 C 173.702 133.883 173.562 133.954 173.351 134.024 L 174.054 135.36 L 173.21 135.36 L 172.577 134.094 L 172.225 134.094 L 172.225 135.36 L 171.452 135.36 L 171.452 132.266 L 171.453 132.266 L 171.453 132.266 Z M 172.648 131.563 C 172.929 131.563 173.281 131.633 173.562 131.774 C 173.843 131.844 174.054 132.055 174.265 132.265 C 174.546 132.476 174.687 132.758 174.757 133.039 C 175.038 133.592 175.038 134.246 174.757 134.798 C 174.687 135.078 174.476 135.36 174.265 135.57 C 174.054 135.782 173.773 135.923 173.492 136.063 C 173.211 136.133 172.93 136.204 172.648 136.204 C 172.296 136.204 172.015 136.134 171.734 136.063 C 171.449 135.916 171.188 135.726 170.961 135.5 C 170.758 135.295 170.591 135.058 170.467 134.798 C 170.397 134.516 170.328 134.235 170.328 133.883 C 170.328 133.602 170.396 133.321 170.467 132.969 C 170.61 132.688 170.821 132.476 171.031 132.265 C 171.242 131.985 171.453 131.844 171.734 131.774 C 172.016 131.634 172.297 131.563 172.648 131.563 L 172.648 131.563 Z M 172.648 131.141 C 173 131.141 173.351 131.212 173.703 131.353 C 174.055 131.494 174.336 131.705 174.617 131.915 C 174.898 132.195 175.109 132.477 175.25 132.829 C 175.32 133.181 175.391 133.532 175.391 133.884 C 175.391 134.306 175.321 134.658 175.18 135.009 C 175.039 135.29 174.899 135.643 174.618 135.854 C 174.337 136.135 174.056 136.346 173.704 136.487 C 173.352 136.628 173.001 136.697 172.649 136.697 C 172.227 136.697 171.876 136.628 171.524 136.487 C 171.188 136.325 170.88 136.111 170.61 135.854 C 170.397 135.572 170.186 135.291 170.048 134.939 C 169.91 134.604 169.838 134.246 169.835 133.884 C 169.835 133.673 169.907 133.392 169.978 133.181 C 170.048 132.9 170.119 132.689 170.259 132.477 C 170.468 132.056 170.821 131.705 171.243 131.494 C 171.664 131.212 172.156 131.141 172.648 131.141 L 172.648 131.141 Z" fill="#fff" fill-opacity="0"/><path d="M 61.742 102.236 C 64.133 94.571 69.689 93.516 73.628 93.516 L 89.451 93.516 C 86.075 104.487 82.7 115.528 79.254 126.499 L 54.288 126.499 C 56.889 118.131 59.14 110.676 61.742 102.236 L 61.742 102.236 Z M 99.016 77.13 L 114.276 77.13 C 120.958 77.13 122.364 75.231 124.194 69.323 C 126.022 63.486 127.78 57.719 129.608 51.811 L 168.077 51.811 C 165.054 61.587 162.1 71.292 159.075 80.997 L 122.786 80.997 C 118.145 96.188 113.432 111.308 108.792 126.498 L 83.896 126.498 C 88.958 110.043 94.022 93.586 99.016 77.13 Z" fill="#c82b30"/><path d="M 45.918 151.255 C 39.096 151.255 8.574 133.11 19.686 97.173 C 29.391 65.667 62.797 51.812 89.169 51.812 L 103.093 51.812 L 96.975 71.645 C 94.865 78.959 88.887 78.959 80.87 78.959 C 68.211 78.959 39.095 87.328 31.57 111.731 C 26.647 127.836 33.891 138.104 47.605 145.839 C 47.043 147.598 46.481 149.427 45.918 151.255 L 45.918 151.255 Z" fill="#433a92"/></g></svg>