<svg version="1.2" xmlns="http://www.w3.org/2000/svg" viewBox="0 0 1496 1252" width="1496" height="1252">
  <title>21-Hagerty-Drivers-Foundation-Logo-color-svg</title>
  <style>
    .s0 { fill: #ffffff } 
		.s1 { fill: #008dcf }
  </style>
  <g id="#04070aff">
    <path id="Layer" class="s0" d="m479.4 1c136 0.1 272.1-0.2 408.2 0.2-159.9 416.7-319.8 833.4-478.7 1250.5-136-1.2-272.1-0.5-408.1-0.3 159.4-416.9 319.2-833.5 478.6-1250.4z"/>
  </g>
  <g id="#008dcfff">
    <path id="Layer" class="s1" d="m1086.3 3.3c136.3-3.6 272.9-1.6 409.3-1.1-158.7 416.5-319.7 832-477.1 1248.9-135.7 0.2-271.4-0.1-407.1 0.3 141.2-376.5 287.4-751.3 430.1-1127.3 15.1-40.2 31.8-79.8 44.8-120.8z"/>
  </g>
</svg>
