<svg version="1.2" xmlns="http://www.w3.org/2000/svg" viewBox="0 0 1536 292" width="1536" height="292">
	<title>Hagerty_wordmark_plain_black-01-svg</title>
	<style>
		.s0 { fill: #ffffff } 
	</style>
	<path id="Layer" fill-rule="evenodd" class="s0" d="m398.9 4.9l82.2 282h-86.1l-17.5-61.1h-88.7l-18.8 61.1h-121.5v-125.4h-66.7v125.4h-81.8v-282h81.8v120.9h66.7v-120.6h81.8v265.5l82.4-265.8zm-29.5 192.6l-34.8-125-37.6 125zm216-70.3h105.9v145.2q-1.6 0.4-3.3 0.7-1.7 0.4-3.3 0.9-1.6 0.5-3.3 1-1.6 0.5-3.2 1.1c-8.7 2.9-9.8 3.3-20.3 6.1 0 0-38.1 9.5-63.4 9.5q-62.6 0-97.2-37.5-34.6-37.5-34.6-105.7c0-44.3 12.3-79.9 36.7-107.3 24.4-27.5 56.4-39.8 95.9-41 47.4-1.5 92.1 16.1 93.6 85.1l-36.8 0.5-1-13.1c-5.1-28.9-18.3-44.6-46.4-43.6-22.5 0.9-34.7 8.4-41.8 22.9-8.4 17.3-11.4 50.5-11.4 98.6q0 67.4 9.2 91.5c1.2 3.7 2.9 7.1 5.2 10.2 2.3 3.1 5 5.8 8.2 8 3.1 2.1 6.6 3.8 10.3 4.8 3.7 1 7.5 1.4 11.3 1.2 20.3 0 30.4-11.4 30.4-33.9v-69.4h-40.7zm202.5 34.4v89.5h108.5v35.8h-190.3v-282h182.8v35.7h-101v85.3h84.9v35.7zm279.6-4.1l72 128.9h-89l-62.6-118.1v118.1h-82v-282h121.5c31.5 0 51.2 7.4 65.3 20 16.3 14.5 25.8 40 25.3 62.5-0.8 27.1-10.3 47.4-50.5 70.6zm-16.5-68.3q0.1-48.5-46.4-48.5h-16.7v97.1h16.7q46.4 0 46.4-48.6zm450.1-84.8h32.7l-68.8 177.9v104.1h-81.8v-104.1l-63.9-149.5h-52.2v253.6h-86.7v-253.6h-69.7v-28.4h281.4l57.4 136zm10.3 233.6c9.7 0 18.4 5.9 22.2 14.9 3.7 9 1.6 19.3-5.3 26.2-6.8 6.8-17.2 8.9-26.1 5.2-9-3.7-14.9-12.5-14.9-22.2 0-3.2 0.7-6.3 1.9-9.2 1.2-2.9 3-5.6 5.2-7.8 2.2-2.2 4.9-4 7.8-5.2 2.9-1.2 6-1.9 9.2-1.9zm0 43.8c7.9 0 15.1-4.8 18.2-12.2 3.1-7.4 1.4-15.8-4.3-21.5-5.6-5.6-14.1-7.3-21.5-4.3-7.4 3.1-12.2 10.3-12.2 18.3 0 2.6 0.5 5.1 1.5 7.5 1 2.4 2.5 4.6 4.3 6.4 1.8 1.9 4 3.3 6.4 4.3 2.4 1 5 1.5 7.6 1.5zm-9.3-33.6h10.7c6.7 0 9.7 2.9 9.7 8.2q0.1 1.5-0.3 2.8-0.4 1.3-1.4 2.4-0.9 1.1-2.2 1.7-1.2 0.6-2.7 0.7l7.2 11.6h-5.3l-6.8-11.2h-3.7v11.2h-5zm5 12h3.7c3.1 0 6.5 0 6.5-3.9 0-3.9-3.4-3.9-6.5-3.8h-3.7z"/>
</svg>